<?xml version="1.0" encoding="utf-8"?>
<!-- Generator: Adobe Illustrator 28.5.0, SVG Export Plug-In . SVG Version: 9.03 Build 54727)  -->
<svg version="1.1" id="Layer_1" xmlns="http://www.w3.org/2000/svg" xmlns:xlink="http://www.w3.org/1999/xlink" x="0px" y="0px"
	 viewBox="0 0 24 24" style="enable-background:new 0 0 24 24;" xml:space="preserve">
<style type="text/css">
	.st0{fill:#0E0F0F;}
	.st1{fill:#4CB7E9;}
	.st2{fill:#2C9FE1;}
	.st3{fill:#146CB2;}
</style>
<path class="st0" d="M20.8,24H3.2C1.4,24,0,22.6,0,20.8V3.2C0,1.4,1.4,0,3.2,0h17.5C22.6,0,24,1.4,24,3.2v17.5
	C24,22.6,22.6,24,20.8,24z"/>
<g>
	<path class="st1" d="M17.5,9c-0.2,0-0.4,0-0.7,0c-2.2,0.1-3.7,1.3-4.8,3c-1.2-1.8-2.8-2.9-4.9-3c-0.2,0-0.4,0-0.6,0
		C7.1,6.6,9.3,4.7,12,4.7C14.7,4.7,16.9,6.6,17.5,9z"/>
	<path class="st2" d="M12,12l-2.7,3.4l-3,3.8C3.9,18.9,2,16.7,2,14.2c0-2.6,2-4.8,4.5-5.1c0.2,0,0.4,0,0.6,0
		C9.2,9.1,10.8,10.2,12,12z"/>
	<path class="st3" d="M22,14.1c0,2.8-2.3,5.2-5.1,5.2l-9.7,0c-0.3,0-0.5,0-0.7-0.1l3-3.8L12,12c1.1-1.7,2.6-2.9,4.8-3
		c0.2,0,0.5,0,0.7,0C20.1,9.4,22,11.5,22,14.1z"/>
</g>
</svg>
